<svg width="1024" height="1024" viewBox="0 0 1024 1024" fill="none" xmlns="http://www.w3.org/2000/svg">
<g filter="url(#filter0_d)">
<path d="M99 343C99 256.192 99 212.788 115.894 179.631C130.754 150.466 154.466 126.754 183.631 111.894C216.788 95 260.192 95 347 95H925V681C925 767.808 925 811.212 908.106 844.369C893.246 873.534 869.534 897.246 840.369 912.106C807.212 929 763.808 929 677 929H347C260.192 929 216.788 929 183.631 912.106C154.466 897.246 130.754 873.534 115.894 844.369C99 811.212 99 767.808 99 681V343Z" fill="white"/>
</g>
<path d="M99 550H473V929H341.595C256.679 929 214.22 929 181.787 912.477C153.257 897.942 130.062 874.75 115.526 846.225C99 813.796 99 771.344 99 686.44V550Z" fill="#FA752A"/>
<path d="M925 550H551V929H682.405C767.321 929 809.78 929 842.213 912.477C870.743 897.942 893.938 874.75 908.474 846.225C925 813.796 925 771.344 925 686.44V550Z" fill="#E44B29"/>
<path fill-rule="evenodd" clip-rule="evenodd" d="M99 474H925V95H341.867C256.855 95 214.35 95 181.88 111.523C153.318 126.058 130.097 149.25 115.544 177.775C99 210.204 99 252.656 99 337.56V474ZM393.036 282.921C393.036 336.471 348.168 379.882 292.82 379.882C237.473 379.882 192.605 336.471 192.605 282.921C192.605 229.371 237.473 185.96 292.82 185.96C348.168 185.96 393.036 229.371 393.036 282.921ZM630.271 230.177L682.133 178.38L735.26 231.44L788.387 178.38L840.25 230.177L787.123 283.237L837.72 333.77L785.858 385.567L735.26 335.033L684.663 385.567L632.801 333.77L683.398 283.237L630.271 230.177Z" fill="#EB582A"/>
<defs>
<filter id="filter0_d" x="69" y="75" width="886" height="894" filterUnits="userSpaceOnUse" color-interpolation-filters="sRGB">
<feFlood flood-opacity="0" result="BackgroundImageFix"/>
<feColorMatrix in="SourceAlpha" type="matrix" values="0 0 0 0 0 0 0 0 0 0 0 0 0 0 0 0 0 0 127 0" result="hardAlpha"/>
<feOffset dy="10"/>
<feGaussianBlur stdDeviation="15"/>
<feComposite in2="hardAlpha" operator="out"/>
<feColorMatrix type="matrix" values="0 0 0 0 0 0 0 0 0 0 0 0 0 0 0 0 0 0 0.3 0"/>
<feBlend mode="normal" in2="BackgroundImageFix" result="effect1_dropShadow"/>
<feBlend mode="normal" in="SourceGraphic" in2="effect1_dropShadow" result="shape"/>
</filter>
</defs>
</svg>
