<svg width="854" height="1081" viewBox="0 0 854 1081" fill="none" xmlns="http://www.w3.org/2000/svg">
<rect width="854" height="1081" fill="white"/>
<path d="M116.345 916.482V696.478H165.69V916.94C165.69 946.822 160.36 968.93 149.699 983.261C139.342 997.593 118.325 1012.84 86.6467 1029L67 991.951C88.3219 978.535 101.877 967.557 107.664 959.019C113.451 950.786 116.345 936.607 116.345 916.482ZM116.345 657.6V605H165.69V657.6H116.345Z" fill="#112A3D"/>
<path d="M207.124 701.052H256.013V882.635H265.151L308.556 701.052H345.863L389.268 882.635H398.406V696.478H447.751L444.096 925.173H355.915L326.386 779.588L298.504 925.173H214.733L207.124 701.052Z" fill="#112A3D"/>
<path d="M487.373 920.599H536.262V739.015H545.399L588.805 920.599H626.112L669.517 739.015H678.655V925.173H728L724.345 696.478H636.163L606.635 842.062L578.753 696.478H494.981L487.373 920.599Z" fill="#112A3D"/>
<path fill-rule="evenodd" clip-rule="evenodd" d="M483.553 468H408.447L425 524.5L401 660H491L467 524.5L483.553 468ZM216 531.137C249.871 510.957 286.616 495.098 325.474 484.322L374.777 660H216V531.137ZM676 660H516.223L565.598 484.066C604.799 494.846 641.86 510.796 676 531.137V660Z" fill="#112A3D"/>
<path d="M283 275H431V425H379C345.397 425 328.595 425 315.761 418.46C304.471 412.708 295.292 403.529 289.54 392.239C283 379.405 283 362.603 283 329V275Z" fill="#FA752A"/>
<path d="M609 275H461V425H513C546.603 425 563.405 425 576.239 418.46C587.529 412.708 596.708 403.529 602.46 392.239C609 379.405 609 362.603 609 329V275Z" fill="#E44B29"/>
<path fill-rule="evenodd" clip-rule="evenodd" d="M283 245H609.5V95H379C345.397 95 328.595 95 315.761 101.54C304.471 107.292 295.292 116.471 289.54 127.761C283 140.595 283 157.397 283 191V245ZM399.226 169.375C399.226 190.569 381.491 207.75 359.613 207.75C337.735 207.75 320 190.569 320 169.375C320 148.181 337.735 131 359.613 131C381.491 131 399.226 148.181 399.226 169.375ZM493 148.5L513.5 128L534.5 149L555.5 128L576 148.5L555 169.5L575 189.5L554.5 210L534.5 190L514.5 210L494 189.5L514 169.5L493 148.5Z" fill="#EB582A"/>
</svg>
